<?xml version="1.0" encoding="utf-8"?>
<!-- Generator: Adobe Illustrator 24.3.0, SVG Export Plug-In . SVG Version: 6.00 Build 0)  -->
<svg version="1.1" id="Layer_1" xmlns="http://www.w3.org/2000/svg" xmlns:xlink="http://www.w3.org/1999/xlink" x="0px" y="0px"
	 viewBox="0 0 125 125" style="enable-background:new 0 0 125 125;" xml:space="preserve">
<style type="text/css">
	.st0{fill-rule:evenodd;clip-rule:evenodd;fill:#73698B;}
	.st1{fill-rule:evenodd;clip-rule:evenodd;fill:#555066;}
	.st2{fill-rule:evenodd;clip-rule:evenodd;fill:#CCA57E;}
	.st3{fill-rule:evenodd;clip-rule:evenodd;fill:#A87F56;}
	.st4{fill-rule:evenodd;clip-rule:evenodd;fill:#EDCDAD;}
	.st5{fill-rule:evenodd;clip-rule:evenodd;}
	.st6{fill-rule:evenodd;clip-rule:evenodd;fill:#573E26;}
</style>
<g>
	<path class="st0" d="M62.317,9.167c29.354,0,53.149,23.796,53.149,53.149c0,29.354-23.796,53.15-53.149,53.15
		S9.168,91.671,9.168,62.317C9.168,32.964,32.964,9.167,62.317,9.167L62.317,9.167z"/>
	<path class="st1" d="M115.266,57.713c0.13,1.518,0.2,3.053,0.2,4.604c0,26.802-19.839,48.965-45.631,52.618L39.767,84.866
		l51.326-51.326L115.266,57.713L115.266,57.713z"/>
	<path class="st2" d="M62.317,30.427c4.923,0,9.586,1.116,13.749,3.108c1.923-1.92,4.578-3.108,7.512-3.108
		c5.87,0,10.63,4.759,10.63,10.63c0,2.933-1.188,5.588-3.109,7.512c1.992,4.163,3.108,8.825,3.108,13.747
		c0,17.612-14.277,31.891-31.89,31.891s-31.89-14.278-31.89-31.891c0-4.922,1.116-9.585,3.108-13.747
		c-1.921-1.923-3.108-4.579-3.108-7.512c0-5.871,4.759-10.63,10.63-10.63c2.933,0,5.588,1.188,7.512,3.108
		C52.732,31.544,57.394,30.427,62.317,30.427L62.317,30.427z"/>
	<path class="st3" d="M87.256,82.192C82.245,88.47,74.914,92.815,66.56,93.925L51.757,79.123l1.812-9.091l17.496-4.031
		L87.256,82.192L87.256,82.192z M62.317,69.403c3.914,0,7.087,3.173,7.087,7.087c0,3.914-3.173,7.086-7.087,7.086
		c-3.914,0-7.087-3.172-7.087-7.086C55.23,72.576,58.403,69.403,62.317,69.403L62.317,69.403z"/>
	<path class="st4" d="M62.317,62.378c6.83,0,12.371,5.541,12.371,12.371c0,3.416-2.769,6.186-6.185,6.186
		c-3.406,0-6.169-2.753-6.186-6.154c-0.017,3.401-2.78,6.154-6.186,6.154c-3.416,0-6.186-2.77-6.186-6.186
		C49.946,67.919,55.487,62.378,62.317,62.378L62.317,62.378z"/>
	<path class="st5" d="M69.404,69.403c0,3.914-3.173,7.087-7.086,7.087c-3.914,0-7.087-3.173-7.087-7.087H69.404L69.404,69.403z
		 M44.6,58.774c1.957,0,3.544,1.587,3.544,3.543c0,1.957-1.587,3.544-3.544,3.544c-1.957,0-3.543-1.587-3.543-3.544
		C41.057,60.361,42.643,58.774,44.6,58.774L44.6,58.774z M80.034,58.835c1.957,0,3.544,1.586,3.544,3.543
		c0,1.957-1.587,3.543-3.544,3.543s-3.543-1.586-3.543-3.543C76.491,60.421,78.077,58.835,80.034,58.835L80.034,58.835z"/>
	<path class="st6" d="M41.057,33.97c1.579,0,3.038,0.517,4.216,1.391c-3.992,2.529-7.383,5.921-9.912,9.913
		c-0.873-1.178-1.391-2.637-1.391-4.216C33.97,37.143,37.143,33.97,41.057,33.97L41.057,33.97z M83.578,33.97
		c3.913,0,7.086,3.173,7.086,7.087c0,1.58-0.517,3.038-1.391,4.217c-2.529-3.992-5.921-7.383-9.912-9.913
		C80.539,34.487,81.998,33.97,83.578,33.97L83.578,33.97z"/>
</g>
</svg>
