<?xml version="1.0" encoding="utf-8"?>
<!-- Generator: Adobe Illustrator 24.3.0, SVG Export Plug-In . SVG Version: 6.00 Build 0)  -->
<svg version="1.1" id="Layer_1" xmlns="http://www.w3.org/2000/svg" xmlns:xlink="http://www.w3.org/1999/xlink" x="0px" y="0px"
	 viewBox="0 0 125 125" style="enable-background:new 0 0 125 125;" xml:space="preserve">
<style type="text/css">
	.st0{fill-rule:evenodd;clip-rule:evenodd;fill:#427231;}
	.st1{fill-rule:evenodd;clip-rule:evenodd;fill:#2E4A23;}
	.st2{fill-rule:evenodd;clip-rule:evenodd;fill:#CCA57E;}
	.st3{fill-rule:evenodd;clip-rule:evenodd;fill:#A87F56;}
	.st4{fill-rule:evenodd;clip-rule:evenodd;fill:#73573C;}
	.st5{fill-rule:evenodd;clip-rule:evenodd;fill:#FFFFFF;}
	.st6{fill-rule:evenodd;clip-rule:evenodd;fill:#CCCCCC;}
	.st7{fill-rule:evenodd;clip-rule:evenodd;fill:#DBBFA2;}
	.st8{fill-rule:evenodd;clip-rule:evenodd;fill:#706464;}
	.st9{fill-rule:evenodd;clip-rule:evenodd;}
</style>
<g>
	<path class="st0" d="M62.317,9.167c29.354,0,53.149,23.796,53.149,53.149c0,29.354-23.796,53.15-53.149,53.15
		c-29.354,0-53.149-23.796-53.149-53.15C9.168,32.964,32.964,9.167,62.317,9.167L62.317,9.167z"/>
	<path class="st1" d="M114.136,50.455c0.869,3.814,1.33,7.784,1.33,11.862c0,26.802-19.838,48.965-45.631,52.618L39.767,84.866
		l54.391-54.39L114.136,50.455L114.136,50.455z"/>
	<path class="st2" d="M62.317,30.427c5.435,0,10.551,1.361,15.029,3.758c5.219-2.792,11.05-4.028,16.812-3.71
		c0.313,5.656-1.062,11.567-3.757,16.723c2.428,4.499,3.806,9.647,3.806,15.118c0,17.612-14.277,31.891-31.89,31.891
		s-31.89-14.278-31.89-31.891c0-5.434,1.361-10.551,3.759-15.028c-2.792-5.219-4.028-11.05-3.71-16.812
		c5.762-0.319,11.594,0.918,16.811,3.71C51.766,31.788,56.883,30.427,62.317,30.427L62.317,30.427z"/>
	<path class="st3" d="M89.315,79.293c-5.501,8.73-15.118,14.606-26.129,14.901L54.8,85.809l8.226-32.805L89.315,79.293
		L89.315,79.293z"/>
	<path class="st4" d="M72.947,39.285v10.63c0,0.974-0.797,1.771-1.771,1.771c-0.975,0-1.771-0.797-1.771-1.771v-10.63
		c0-0.974,0.797-1.771,1.771-1.771C72.15,37.514,72.947,38.312,72.947,39.285L72.947,39.285z M90.587,34.026
		c-3.37,0.211-6.646,1.019-9.692,2.369c2.8,2.01,5.26,4.463,7.28,7.256C89.51,40.591,90.345,37.299,90.587,34.026L90.587,34.026z
		 M43.741,36.395c-3.053-1.354-6.338-2.161-9.716-2.371c0.209,3.378,1.017,6.663,2.37,9.716
		C38.427,40.911,40.911,38.427,43.741,36.395L43.741,36.395z M64.089,35.742v10.63c0,0.974-0.797,1.772-1.771,1.772
		c-0.975,0-1.771-0.798-1.771-1.772v-10.63c0-0.974,0.797-1.772,1.771-1.772C63.292,33.97,64.089,34.768,64.089,35.742
		L64.089,35.742z M55.231,39.285v10.63c0,0.974-0.798,1.771-1.771,1.771c-0.975,0-1.772-0.797-1.772-1.771v-10.63
		c0-0.974,0.798-1.771,1.772-1.771C54.433,37.514,55.231,38.312,55.231,39.285L55.231,39.285z"/>
	<path class="st5" d="M47.774,68.903c1.384-1.384,3.628-1.384,5.012,0c1.67,1.67,3.34,3.34,5.011,5.011
		c1.384,1.384,1.384,3.627,0,5.011c-1.384,1.384-3.627,1.384-5.011,0c-1.671-1.67-3.341-3.341-5.011-5.011
		C46.39,72.53,46.39,70.287,47.774,68.903L47.774,68.903z"/>
	<path class="st6" d="M76.787,68.903c-1.384-1.384-3.628-1.384-5.011,0c-1.671,1.67-3.341,3.34-5.012,5.011
		c-1.384,1.384-1.384,3.627,0,5.011c1.384,1.384,3.627,1.384,5.012,0c1.67-1.67,3.34-3.341,5.011-5.011
		C78.171,72.53,78.171,70.287,76.787,68.903L76.787,68.903z"/>
	<path class="st7" d="M51.687,78.292c0-10.456,3.803-20.396,10.63-28.124c6.827,7.728,10.63,17.667,10.63,28.124H51.687
		L51.687,78.292z"/>
	<path class="st8" d="M69.834,70.776c4.151,4.151,4.151,10.882,0,15.033c-4.151,4.151-10.882,4.151-15.033,0
		c-4.151-4.151-4.151-10.882,0-15.033C58.952,66.624,65.682,66.624,69.834,70.776L69.834,70.776z"/>
	<path class="st9" d="M57.848,74.791c1.957,0,3.543,1.587,3.543,3.544s-1.586,3.543-3.543,3.543s-3.544-1.586-3.544-3.543
		S55.891,74.791,57.848,74.791L57.848,74.791z M44.601,58.774c1.956,0,3.543,1.587,3.543,3.543c0,1.957-1.587,3.544-3.543,3.544
		c-1.957,0-3.544-1.587-3.544-3.544C41.057,60.361,42.644,58.774,44.601,58.774L44.601,58.774z M80.034,58.835
		c1.957,0,3.544,1.586,3.544,3.543c0,1.957-1.587,3.543-3.544,3.543c-1.957,0-3.543-1.586-3.543-3.543
		C76.491,60.421,78.077,58.835,80.034,58.835L80.034,58.835z M66.569,74.791c1.957,0,3.544,1.587,3.544,3.544
		s-1.587,3.543-3.544,3.543s-3.543-1.586-3.543-3.543S64.612,74.791,66.569,74.791L66.569,74.791z"/>
</g>
</svg>
