<?xml version="1.0" encoding="utf-8"?>
<!-- Generator: Adobe Illustrator 24.3.0, SVG Export Plug-In . SVG Version: 6.00 Build 0)  -->
<svg version="1.1" id="Layer_1" xmlns="http://www.w3.org/2000/svg" xmlns:xlink="http://www.w3.org/1999/xlink" x="0px" y="0px"
	 viewBox="0 0 125 125" style="enable-background:new 0 0 125 125;" xml:space="preserve">
<style type="text/css">
	.st0{fill-rule:evenodd;clip-rule:evenodd;fill:#1BBA9A;}
	.st1{fill-rule:evenodd;clip-rule:evenodd;fill:#299178;}
	.st2{fill-rule:evenodd;clip-rule:evenodd;}
	.st3{fill-rule:evenodd;clip-rule:evenodd;fill:#4A3227;}
	.st4{fill-rule:evenodd;clip-rule:evenodd;fill:#CCB4A6;}
	.st5{fill-rule:evenodd;clip-rule:evenodd;fill:#A2836E;}
	.st6{fill-rule:evenodd;clip-rule:evenodd;fill:#876454;}
</style>
<g>
	<path class="st0" d="M62.317,9.167c29.354,0,53.149,23.795,53.149,53.149c0,29.354-23.796,53.15-53.149,53.15
		c-29.354,0-53.149-23.796-53.149-53.15C9.168,32.962,32.963,9.167,62.317,9.167L62.317,9.167z"/>
	<path class="st1" d="M114.136,50.454c0.869,3.814,1.33,7.784,1.33,11.862c0,26.801-19.839,48.965-45.631,52.618L39.767,84.866
		l54.391-54.39L114.136,50.454L114.136,50.454z"/>
	<path class="st2" d="M30.476,30.476c8.742-0.484,17.644,2.611,24.322,9.289c3.479,3.479,5.984,7.56,7.519,11.909
		c1.535-4.349,4.04-8.43,7.519-11.909c6.678-6.678,15.58-9.773,24.322-9.289c0.483,8.742-3.062,18.095-9.289,24.322
		c-6.227,6.227-13.22,8.872-20.781,9.289c-1.192,0.059-2.349,0.063-3.542,0c-7.562-0.417-15.003-3.512-20.781-9.289
		C33.088,48.12,29.992,39.217,30.476,30.476L30.476,30.476z"/>
	<path class="st3" d="M90.586,34.025c-6.853,0.43-13.321,3.321-18.244,8.245c-2.993,2.993-5.274,6.589-6.684,10.582l-2.729,7.733
		c0.322-0.007,0.644-0.019,0.966-0.037c7.287-0.396,13.271-3.061,18.468-8.257C87.075,47.58,90.09,40.763,90.586,34.025
		L90.586,34.025z M61.705,60.585l-2.73-7.733c-1.409-3.993-3.69-7.589-6.683-10.582c-4.929-4.929-11.407-7.822-18.268-8.247
		c0.424,6.861,3.317,13.339,8.247,18.268c4.95,4.95,11.479,7.873,18.469,8.257C61.063,60.566,61.384,60.579,61.705,60.585
		L61.705,60.585z"/>
	<path class="st4" d="M62.317,30.427c17.612,0,31.89,14.277,31.89,31.889c0,17.612-14.277,31.89-31.89,31.89
		s-31.89-14.278-31.89-31.89C30.427,44.704,44.705,30.427,62.317,30.427L62.317,30.427z"/>
	<path class="st5" d="M86.285,83.35c-5.722,6.514-14.057,10.677-23.367,10.849L50.205,81.485l24.251-9.965L86.285,83.35
		L86.285,83.35z"/>
	<path class="st5" d="M62.318,84.412c-1.881,1.684-4.365,2.708-7.087,2.708c-5.87,0-10.63-4.76-10.63-10.629
		c0-5.87,4.761-10.63,10.63-10.63h0.22c0.707-5.652,3.094-10.935,6.866-15.205c3.772,4.27,6.16,9.553,6.866,15.206h0.221
		c5.869,0,10.63,4.76,10.63,10.63c0,5.869-4.761,10.629-10.63,10.629C66.682,87.119,64.198,86.095,62.318,84.412L62.318,84.412z"/>
	<path class="st6" d="M62.318,84.412c-1.744,1.561-4.005,2.555-6.495,2.691l-5.618-5.618l24.251-9.965l5.562,5.562
		c-0.308,5.594-4.942,10.038-10.613,10.038C66.682,87.119,64.198,86.095,62.318,84.412L62.318,84.412z"/>
	<path class="st5" d="M62.317,72.946c3.913,0,7.086,3.173,7.086,7.086c0,3.914-3.173,7.087-7.086,7.087
		c-3.914,0-7.086-3.173-7.086-7.087C55.231,76.119,58.403,72.946,62.317,72.946L62.317,72.946z"/>
	<path class="st3" d="M55.231,69.403h14.173c3.914,0,7.087,3.173,7.087,7.087c0,3.913-3.173,7.086-7.087,7.086
		c-3.914,0-7.087-3.173-7.087-7.087c0,3.914-3.173,7.087-7.086,7.087c-3.914,0-7.087-3.173-7.087-7.086
		C48.144,72.576,51.317,69.403,55.231,69.403L55.231,69.403z"/>
	<path class="st2" d="M69.404,69.403c0,3.914-3.173,7.086-7.086,7.086c-3.913,0-7.086-3.173-7.086-7.086H69.404L69.404,69.403z
		 M44.601,58.773c1.957,0,3.543,1.586,3.543,3.543c0,1.957-1.586,3.543-3.543,3.543c-1.957,0-3.543-1.587-3.543-3.543
		C41.057,60.359,42.644,58.773,44.601,58.773L44.601,58.773z M80.034,58.834c1.957,0,3.543,1.586,3.543,3.543
		c0,1.957-1.586,3.543-3.543,3.543c-1.957,0-3.543-1.586-3.543-3.543C76.491,60.42,78.077,58.834,80.034,58.834L80.034,58.834z"/>
</g>
</svg>
