<?xml version="1.0" encoding="utf-8"?>
<!-- Generator: Adobe Illustrator 24.3.0, SVG Export Plug-In . SVG Version: 6.00 Build 0)  -->
<svg version="1.1" id="Layer_1" xmlns="http://www.w3.org/2000/svg" xmlns:xlink="http://www.w3.org/1999/xlink" x="0px" y="0px"
	 viewBox="0 0 125 125" style="enable-background:new 0 0 125 125;" xml:space="preserve">
<style type="text/css">
	.st0{fill-rule:evenodd;clip-rule:evenodd;fill:#5373B8;}
	.st1{fill-rule:evenodd;clip-rule:evenodd;fill:#3C5D90;}
	.st2{fill-rule:evenodd;clip-rule:evenodd;fill:#E69053;}
	.st3{fill-rule:evenodd;clip-rule:evenodd;fill:#BB7341;}
	.st4{fill-rule:evenodd;clip-rule:evenodd;fill:#010101;}
	.st5{fill-rule:evenodd;clip-rule:evenodd;fill:#FFFFFF;}
	.st6{fill-rule:evenodd;clip-rule:evenodd;fill:#F0C9C9;}
	.st7{fill-rule:evenodd;clip-rule:evenodd;fill:#784747;}
</style>
<g>
	<path class="st0" d="M62.5,9.351c29.354,0,53.149,23.796,53.149,53.15s-23.796,53.15-53.149,53.15S9.351,91.855,9.351,62.501
		S33.146,9.351,62.5,9.351L62.5,9.351z"/>
	<path class="st1" d="M114.319,50.639c0.869,3.815,1.33,7.785,1.33,11.862c0,26.801-19.838,48.965-45.631,52.618L39.951,85.05
		l54.39-54.39L114.319,50.639L114.319,50.639z"/>
	<path class="st2" d="M62.5,30.611c5.435,0,10.551,1.361,15.029,3.758c5.219-2.792,11.05-4.028,16.812-3.71
		c0.313,5.656-1.062,11.567-3.757,16.722c2.428,4.499,3.806,9.648,3.806,15.119c0,17.612-14.277,31.89-31.89,31.89
		S30.61,80.113,30.61,62.501c0-5.434,1.361-10.551,3.758-15.029c-2.792-5.218-4.028-11.05-3.709-16.811
		c5.762-0.319,11.593,0.917,16.811,3.71C51.949,31.972,57.065,30.611,62.5,30.611L62.5,30.611z"/>
	<path class="st3" d="M86.254,83.775C80.415,90.291,71.937,94.391,62.5,94.391c-0.874,0-1.738-0.037-2.594-0.105l-0.504-0.504
		l-9.071-9.071l24.561-12.297L86.254,83.775L86.254,83.775z"/>
	<path class="st4" d="M44.784,58.958c1.957,0,3.543,1.586,3.543,3.543s-1.587,3.544-3.543,3.544c-1.957,0-3.543-1.586-3.543-3.544
		C41.24,60.544,42.827,58.958,44.784,58.958L44.784,58.958z M80.217,59.019c1.956,0,3.543,1.586,3.543,3.543
		s-1.586,3.543-3.543,3.543s-3.544-1.586-3.544-3.543C76.674,60.605,78.26,59.019,80.217,59.019L80.217,59.019z"/>
	<path class="st5" d="M50.036,30.853c1.89-0.506,3.833,0.616,4.34,2.505c0.322,1.205,0.594,2.219,0.917,3.423
		c0.506,1.891-0.616,3.833-2.506,4.34c-1.89,0.506-3.833-0.615-4.339-2.505c-0.323-1.205-0.594-2.219-0.917-3.423
		C47.024,33.302,48.146,31.359,50.036,30.853L50.036,30.853z M69.586,66.045v7.086H55.413v-7.086c0-3.914,3.173-7.086,7.086-7.086
		C66.413,58.958,69.586,62.131,69.586,66.045L69.586,66.045z M74.964,30.853c-1.89-0.506-3.833,0.616-4.34,2.505
		c-0.322,1.205-0.594,2.219-0.917,3.423c-0.506,1.891,0.615,3.833,2.505,4.34c1.891,0.506,3.833-0.615,4.34-2.505
		c0.323-1.205,0.594-2.219,0.917-3.423C77.976,33.302,76.854,31.359,74.964,30.853L74.964,30.853z"/>
	<path class="st6" d="M56.595,69.588h11.81c4.893,0,8.858,3.966,8.858,8.858s-3.966,8.858-8.858,8.858c-10.512,0-1.3,0-11.811,0
		c-4.892,0-8.858-3.966-8.858-8.858S51.703,69.588,56.595,69.588L56.595,69.588z"/>
	<path class="st7" d="M90.769,34.21c-3.37,0.211-6.646,1.018-9.692,2.369c2.8,2.01,5.26,4.463,7.28,7.256
		C89.693,40.776,90.528,37.484,90.769,34.21L90.769,34.21z M73.13,76.674c0,1.957-1.586,3.543-3.543,3.543s-3.544-1.586-3.544-3.543
		H73.13L73.13,76.674z M58.957,76.674c0,1.957-1.586,3.543-3.543,3.543s-3.543-1.586-3.543-3.543H58.957L58.957,76.674z
		 M43.923,36.58c-3.053-1.354-6.337-2.162-9.716-2.371c0.209,3.377,1.017,6.663,2.371,9.715
		C38.61,41.094,41.094,38.611,43.923,36.58L43.923,36.58z"/>
</g>
</svg>
