<?xml version="1.0" encoding="utf-8"?>
<!-- Generator: Adobe Illustrator 24.3.0, SVG Export Plug-In . SVG Version: 6.00 Build 0)  -->
<svg version="1.1" id="Layer_1" xmlns="http://www.w3.org/2000/svg" xmlns:xlink="http://www.w3.org/1999/xlink" x="0px" y="0px"
	 viewBox="0 0 125 125" style="enable-background:new 0 0 125 125;" xml:space="preserve">
<style type="text/css">
	.st0{fill-rule:evenodd;clip-rule:evenodd;fill:#00AEAD;}
	.st1{fill-rule:evenodd;clip-rule:evenodd;fill:#40878B;}
	.st2{fill-rule:evenodd;clip-rule:evenodd;fill:#EBE2BC;}
	.st3{fill-rule:evenodd;clip-rule:evenodd;fill:#CCC293;}
	.st4{fill-rule:evenodd;clip-rule:evenodd;fill:#C37029;}
	.st5{fill-rule:evenodd;clip-rule:evenodd;fill:#010101;}
</style>
<g>
	<path class="st0" d="M62.762,9.612c29.354,0,53.149,23.796,53.149,53.149c0,29.354-23.796,53.15-53.149,53.15
		c-29.354,0-53.149-23.796-53.149-53.15C9.613,33.408,33.408,9.612,62.762,9.612L62.762,9.612z"/>
	<path class="st1" d="M115.462,55.834c0.295,2.268,0.449,4.58,0.449,6.928c0,26.801-19.839,48.965-45.631,52.618L40.212,85.311
		l52.364-52.364L115.462,55.834L115.462,55.834z"/>
	<path class="st2" d="M62.762,30.872c5.151,0,10.018,1.223,14.324,3.393l3.393-3.393l9.799,4.027l-5.142,5.142
		c5.873,5.784,9.516,13.826,9.516,22.721c0,17.612-14.277,31.89-31.89,31.89c-14.179,0-26.194-9.254-30.341-22.051
		c16.559-1.159,29.632-14.955,29.632-31.807c0-3.435-0.545-6.741-1.55-9.841C61.249,30.9,62.002,30.872,62.762,30.872L62.762,30.872
		z"/>
	<path class="st3" d="M86.73,83.795c-5.722,6.514-14.057,10.677-23.367,10.849L50.65,81.931l5.054-2.077
		c-0.018,0.206-0.028,0.414-0.028,0.624c0,3.914,3.173,7.087,7.087,7.087s7.086-3.173,7.086-7.087c0-2.167-0.973-4.106-2.506-5.407
		l7.559-3.106L86.73,83.795L86.73,83.795z"/>
	<path class="st3" d="M90.395,46.834c2.61,4.521,4.144,9.741,4.249,15.312l-12.09-12.09L90.395,46.834L90.395,46.834z"/>
	<path class="st4" d="M32.671,73.34c-1.164-3.311-1.799-6.87-1.799-10.579c0-8.894,3.642-16.936,9.517-22.72l-5.143-5.143
		l9.799-4.027l3.393,3.393c3.802-1.915,8.04-3.092,12.525-3.341c1.163,3.311,1.799,6.87,1.799,10.578
		C62.762,58.511,49.447,72.407,32.671,73.34L32.671,73.34z"/>
	<path class="st4" d="M55.676,69.848h14.173c3.914,0,7.087,3.173,7.087,7.086c0,3.914-3.173,7.087-7.087,7.087
		s-7.087-3.173-7.087-7.087c0,3.914-3.173,7.087-7.087,7.087c-3.913,0-7.086-3.173-7.086-7.087
		C48.589,73.021,51.762,69.848,55.676,69.848L55.676,69.848z"/>
	<path class="st5" d="M69.849,69.848c0,3.914-3.173,7.086-7.086,7.086c-3.914,0-7.087-3.173-7.087-7.086H69.849L69.849,69.848z
		 M45.045,59.219c1.957,0,3.544,1.586,3.544,3.543c0,1.957-1.587,3.544-3.544,3.544c-1.957,0-3.543-1.586-3.543-3.544
		C41.502,60.805,43.088,59.219,45.045,59.219L45.045,59.219z M80.479,59.279c1.957,0,3.543,1.586,3.543,3.543
		s-1.586,3.543-3.543,3.543s-3.543-1.586-3.543-3.543S78.522,59.279,80.479,59.279L80.479,59.279z"/>
	<path class="st2" d="M45.045,45.045c0,3.913-3.173,7.087-7.087,7.087c-3.913,0-7.086-3.172-7.086-7.087c0-2.493,0-4.594,0-7.087
		c0-3.914,3.173-7.086,7.086-7.086h7.087L45.045,45.045L45.045,45.045z"/>
	<path class="st4" d="M80.479,45.045c0,3.913,3.173,7.087,7.086,7.087c3.914,0,7.087-3.172,7.087-7.087c0-2.493,0-4.594,0-7.087
		c0-3.914-3.173-7.086-7.087-7.086h-7.086V45.045L80.479,45.045z"/>
</g>
</svg>
