<?xml version="1.0" encoding="utf-8"?>
<!-- Generator: Adobe Illustrator 24.3.0, SVG Export Plug-In . SVG Version: 6.00 Build 0)  -->
<svg version="1.1" id="Layer_1" xmlns="http://www.w3.org/2000/svg" xmlns:xlink="http://www.w3.org/1999/xlink" x="0px" y="0px"
	 viewBox="0 0 125 125" style="enable-background:new 0 0 125 125;" xml:space="preserve">
<style type="text/css">
	.st0{fill-rule:evenodd;clip-rule:evenodd;fill:#CB4A34;}
	.st1{fill-rule:evenodd;clip-rule:evenodd;fill:#9D402D;}
	.st2{fill-rule:evenodd;clip-rule:evenodd;fill:#C3C3C8;}
	.st3{fill-rule:evenodd;clip-rule:evenodd;fill:#7E808B;}
	.st4{fill-rule:evenodd;clip-rule:evenodd;fill:#FFFFFF;}
	.st5{fill-rule:evenodd;clip-rule:evenodd;fill:#E6E5E8;}
	.st6{fill-rule:evenodd;clip-rule:evenodd;fill:#2A292D;}
</style>
<g>
	<path class="st0" d="M62.762,9.612c29.354,0,53.15,23.796,53.15,53.149s-23.796,53.15-53.15,53.15S9.613,92.115,9.613,62.762
		S33.408,9.612,62.762,9.612L62.762,9.612z"/>
	<path class="st1" d="M115.458,55.799c0.298,2.279,0.454,4.603,0.454,6.963c0,29.353-23.796,53.149-53.15,53.149
		c-2.312,0-4.588-0.148-6.822-0.435l-22.97-22.97l59.598-59.598L115.458,55.799L115.458,55.799z"/>
	<path class="st2" d="M30.872,62.701V37.959c0-3.954,3.206-7.16,7.161-7.16c1.978,0,3.768,0.801,5.063,2.097l9.036,9.036
		L30.872,62.701L30.872,62.701z M94.653,62.701V37.959c0-3.954-3.206-7.16-7.161-7.16c-1.978,0-3.768,0.801-5.063,2.097
		l-9.037,9.035L94.653,62.701L94.653,62.701z"/>
	<path class="st2" d="M94.651,62.703l0.001-0.002v24.743c0,3.954-3.206,7.16-7.161,7.16c-1.978,0-3.768-0.802-5.063-2.098
		l-2.725-2.725c-4.908,3.085-10.715,4.87-16.941,4.87c-6.225,0-12.032-1.785-16.941-4.869l-2.725,2.725
		c-1.296,1.296-3.086,2.098-5.063,2.098c-3.955,0-7.161-3.206-7.161-7.16V62.761v-0.06l0.001,0.001
		c0.032-17.585,14.296-31.83,31.889-31.83C80.355,30.872,94.619,45.118,94.651,62.703L94.651,62.703z"/>
	<path class="st3" d="M42.957,37.767l-2.366-2.366c-0.683-0.684-1.592-1.06-2.558-1.06c-1.999,0-3.617,1.618-3.617,3.617V48.14
		C36.503,44.103,39.426,40.569,42.957,37.767L42.957,37.767z M42.89,87.702l-2.299,2.3c-0.683,0.683-1.592,1.06-2.558,1.06
		c-1.999,0-3.617-1.619-3.617-3.617V77.383C36.49,81.394,39.389,84.909,42.89,87.702L42.89,87.702z"/>
	<path class="st3" d="M82.567,37.767l2.367-2.366c0.683-0.684,1.592-1.06,2.558-1.06c1.999,0,3.617,1.618,3.617,3.617v10.183
		C89.022,44.104,86.099,40.57,82.567,37.767L82.567,37.767z M82.635,87.702c-5.451,4.348-12.358,6.949-19.873,6.949l7.013-7.086
		v-21.26l17.204,17.203c1.602-1.867,2.991-3.922,4.13-6.127v10.062c0,1.998-1.619,3.617-3.617,3.617
		c-0.966,0-1.875-0.377-2.558-1.06L82.635,87.702L82.635,87.702z"/>
	<path class="st4" d="M48.22,69.348c1.384-1.384,3.627-1.384,5.011,0l2.445,2.444v8.614c-0.886-0.015-1.769-0.36-2.445-1.037
		c-1.671-1.67-3.34-3.341-5.011-5.011C46.836,72.975,46.836,70.732,48.22,69.348L48.22,69.348z"/>
	<path class="st4" d="M77.232,69.348c-1.283-1.283-3.304-1.376-4.694-0.281v3.543l4.975,1.433
		C78.608,72.652,78.514,70.631,77.232,69.348L77.232,69.348z"/>
	<path class="st5" d="M72.537,69.067c-0.11,0.086-0.216,0.18-0.317,0.281l-2.445,2.444v8.614c0.887-0.015,1.769-0.36,2.445-1.037
		c1.67-1.67,3.341-3.341,5.011-5.011c0.102-0.102,0.195-0.207,0.281-0.316L72.537,69.067L72.537,69.067z"/>
	<path class="st5" d="M62.762,80.479c3.914,0,7.086,3.172,7.086,7.086s-3.172,7.086-7.086,7.086s-7.086-3.172-7.086-7.086
		S58.848,80.479,62.762,80.479L62.762,80.479z"/>
	<path class="st6" d="M76.936,59.279c1.957,0,3.544,1.587,3.544,3.544s-1.586,3.543-3.544,3.543c-1.957,0-3.543-1.586-3.543-3.543
		C73.393,60.866,74.979,59.279,76.936,59.279L76.936,59.279z M65.597,85.794c-0.979,0-1.772,0.793-1.772,1.771
		s0.793,1.771,1.772,1.771c0.979,0,1.771-0.793,1.771-1.771S66.575,85.794,65.597,85.794L65.597,85.794z M59.928,85.794
		c0.979,0,1.771,0.793,1.771,1.771s-0.793,1.771-1.771,1.771s-1.771-0.793-1.771-1.771S58.949,85.794,59.928,85.794L59.928,85.794z
		 M48.589,59.219c1.957,0,3.543,1.586,3.543,3.543s-1.586,3.544-3.543,3.544s-3.543-1.587-3.543-3.544
		C45.046,60.804,46.632,59.219,48.589,59.219L48.589,59.219z"/>
</g>
</svg>
