<?xml version="1.0" encoding="utf-8"?>
<!-- Generator: Adobe Illustrator 24.3.0, SVG Export Plug-In . SVG Version: 6.00 Build 0)  -->
<svg version="1.1" id="Layer_1" xmlns="http://www.w3.org/2000/svg" xmlns:xlink="http://www.w3.org/1999/xlink" x="0px" y="0px"
	 viewBox="0 0 125 125" style="enable-background:new 0 0 125 125;" xml:space="preserve">
<style type="text/css">
	.st0{fill-rule:evenodd;clip-rule:evenodd;fill:#D9E36B;}
	.st1{fill-rule:evenodd;clip-rule:evenodd;fill:#ADB559;}
	.st2{fill-rule:evenodd;clip-rule:evenodd;fill:#D06C28;}
	.st3{fill-rule:evenodd;clip-rule:evenodd;fill:#FFFFFF;}
	.st4{fill-rule:evenodd;clip-rule:evenodd;fill:#CCCCCC;}
	.st5{fill-rule:evenodd;clip-rule:evenodd;fill:#E6E6E5;}
	.st6{fill-rule:evenodd;clip-rule:evenodd;fill:#010101;}
</style>
<g>
	<path class="st0" d="M62.762,9.612c29.354,0,53.149,23.796,53.149,53.149c0,29.354-23.795,53.149-53.149,53.149
		S9.613,92.115,9.613,62.761C9.613,33.408,33.408,9.612,62.762,9.612L62.762,9.612z"/>
	<path class="st1" d="M114.581,50.9c0.87,3.814,1.33,7.784,1.33,11.862c0,26.801-19.838,48.965-45.63,52.618L40.213,85.311
		l54.39-54.39L114.581,50.9L114.581,50.9z"/>
	<path class="st2" d="M62.762,30.872c5.435,0,10.551,1.361,15.029,3.758c5.218-2.792,11.05-4.028,16.812-3.71
		c0.313,5.655-1.062,11.567-3.757,16.722c2.428,4.499,3.806,9.647,3.806,15.118c0,3.728-0.642,7.305-1.817,10.631H32.69
		c-1.175-3.326-1.817-6.903-1.817-10.631c0-5.434,1.361-10.551,3.759-15.029c-2.792-5.218-4.028-11.05-3.71-16.812
		c5.762-0.319,11.593,0.918,16.811,3.71C52.211,32.233,57.327,30.872,62.762,30.872L62.762,30.872z"/>
	<path class="st3" d="M93.861,69.848C90.638,84.05,77.939,94.652,62.762,94.652c-15.176,0-27.876-10.603-31.098-24.804h24.012l0,0
		c0-6.971,2.535-13.597,7.087-18.749c4.551,5.152,7.086,11.778,7.086,18.749l0,0H93.861L93.861,69.848z"/>
	<path class="st4" d="M88.575,81.488c-5.687,7.825-14.843,12.965-25.211,13.157L50.65,81.931l26.286-12.083L88.575,81.488
		L88.575,81.488z"/>
	<path class="st5" d="M62.762,73.392c3.913,0,7.086,3.172,7.086,7.086s-3.173,7.087-7.086,7.087c-3.914,0-7.086-3.173-7.086-7.087
		C55.676,76.564,58.848,73.392,62.762,73.392L62.762,73.392z"/>
	<path class="st3" d="M76.936,69.848v7.087c0,3.914-3.173,7.086-7.087,7.086s-7.087-3.173-7.087-7.086
		c0,3.914-3.172,7.086-7.086,7.086s-7.087-3.172-7.087-7.086v-7.087H76.936L76.936,69.848z"/>
	<path class="st6" d="M69.849,69.848c0,3.914-3.172,7.087-7.086,7.087s-7.087-3.173-7.087-7.087H69.849L69.849,69.848z
		 M91.031,34.471c-3.37,0.211-6.646,1.018-9.692,2.369c2.8,2.01,5.26,4.463,7.28,7.256C89.955,41.036,90.79,37.744,91.031,34.471
		L91.031,34.471z M44.186,36.84c-3.053-1.354-6.338-2.162-9.716-2.371c0.209,3.378,1.017,6.663,2.371,9.716
		C38.872,41.356,41.356,38.872,44.186,36.84L44.186,36.84z M45.046,59.219c1.957,0,3.543,1.586,3.543,3.543
		s-1.586,3.544-3.543,3.544s-3.543-1.587-3.543-3.544C41.502,60.805,43.089,59.219,45.046,59.219L45.046,59.219z M80.479,59.279
		c1.957,0,3.543,1.587,3.543,3.544c0,1.957-1.586,3.543-3.543,3.543s-3.544-1.586-3.544-3.543
		C76.936,60.866,78.522,59.279,80.479,59.279L80.479,59.279z"/>
</g>
</svg>
