<?xml version="1.0" encoding="utf-8"?>
<!-- Generator: Adobe Illustrator 24.3.0, SVG Export Plug-In . SVG Version: 6.00 Build 0)  -->
<svg version="1.1" id="Layer_1" xmlns="http://www.w3.org/2000/svg" xmlns:xlink="http://www.w3.org/1999/xlink" x="0px" y="0px"
	 viewBox="0 0 125 125" style="enable-background:new 0 0 125 125;" xml:space="preserve">
<style type="text/css">
	.st0{fill-rule:evenodd;clip-rule:evenodd;fill:#DCC036;}
	.st1{fill-rule:evenodd;clip-rule:evenodd;fill:#B89436;}
	.st2{fill-rule:evenodd;clip-rule:evenodd;fill:#7C806E;}
	.st3{fill-rule:evenodd;clip-rule:evenodd;fill:#616259;}
	.st4{fill-rule:evenodd;clip-rule:evenodd;fill:#010101;}
	.st5{fill-rule:evenodd;clip-rule:evenodd;fill:#B1B49B;}
	.st6{fill-rule:evenodd;clip-rule:evenodd;fill:#5C5C54;}
	.st7{fill-rule:evenodd;clip-rule:evenodd;fill:#FFFFFF;}
</style>
<g>
	<path class="st0" d="M62.762,9.612c29.354,0,53.149,23.796,53.149,53.149c0,29.354-23.796,53.149-53.149,53.149
		S9.613,92.116,9.613,62.761C9.613,33.408,33.408,9.612,62.762,9.612L62.762,9.612z"/>
	<path class="st1" d="M115.462,55.834c0.295,2.268,0.449,4.58,0.449,6.928c0,27.808-21.356,50.624-48.562,52.95l-25.05-25.049
		l50.276-57.716L115.462,55.834L115.462,55.834z"/>
	<path class="st2" d="M62.762,30.872c6.634,0,12.794,2.026,17.897,5.493c0.723-3.146,3.541-5.493,6.907-5.493
		c3.914,0,7.086,3.173,7.086,7.087c0,3.366-2.346,6.184-5.493,6.906c3.466,5.104,5.492,11.264,5.492,17.896
		c0,10.018-4.622,18.957-11.848,24.804h2.85c-2.46,4.228-7.043,7.086-12.261,7.086h-10.63h-10.63c-5.219,0-9.801-2.858-12.261-7.086
		h2.849c-7.226-5.847-11.848-14.785-11.848-24.804c0-6.633,2.026-12.793,5.492-17.896c-3.146-0.723-5.492-3.541-5.492-6.906
		c0-3.914,3.173-7.087,7.086-7.087c3.366,0,6.184,2.347,6.907,5.493C49.969,32.898,56.128,30.872,62.762,30.872L62.762,30.872z"/>
	<path class="st3" d="M90.863,77.848c-1.479,2.749-3.349,5.256-5.536,7.446l-4.848-11.902l2.992-2.936L90.863,77.848L90.863,77.848z
		"/>
	<path class="st4" d="M48.589,59.219c1.957,0,3.544,1.586,3.544,3.543s-1.586,3.544-3.544,3.544c-1.956,0-3.543-1.587-3.543-3.544
		C45.045,60.804,46.632,59.219,48.589,59.219L48.589,59.219z M76.936,59.279c1.957,0,3.544,1.587,3.544,3.544
		c0,1.956-1.587,3.543-3.544,3.543s-3.543-1.587-3.543-3.543C73.392,60.866,74.979,59.279,76.936,59.279L76.936,59.279z"/>
	<path class="st5" d="M39.87,87.565c-1.215-2.088-1.912-4.51-1.912-7.087l0,0c0-7.795,6.378-14.173,14.173-14.173h21.261
		c7.795,0,14.173,6.378,14.173,14.173l0,0c0,2.577-0.697,4.999-1.912,7.087L39.87,87.565L39.87,87.565z"/>
	<path class="st6" d="M69.849,73.392c1.957,0,3.543,1.586,3.543,3.543s-1.586,3.543-3.543,3.543s-3.544-1.586-3.544-3.543
		S67.892,73.392,69.849,73.392L69.849,73.392z M87.565,34.416c1.957,0,3.544,1.586,3.544,3.543s-1.587,3.543-3.544,3.543
		c-1.956,0-3.543-1.586-3.543-3.543S85.609,34.416,87.565,34.416L87.565,34.416z M37.959,34.416c1.957,0,3.543,1.586,3.543,3.543
		s-1.586,3.543-3.543,3.543s-3.543-1.586-3.543-3.543C34.415,36.002,36.002,34.416,37.959,34.416L37.959,34.416z M55.676,73.392
		c1.957,0,3.543,1.586,3.543,3.543s-1.586,3.543-3.543,3.543s-3.543-1.586-3.543-3.543S53.719,73.392,55.676,73.392L55.676,73.392z"
		/>
	<path class="st7" d="M71.62,82.25h5.315v5.315H71.62V82.25L71.62,82.25z M53.904,82.25h-5.315v5.315h5.315V82.25L53.904,82.25z"/>
</g>
</svg>
