<?xml version="1.0" encoding="utf-8"?>
<!-- Generator: Adobe Illustrator 24.3.0, SVG Export Plug-In . SVG Version: 6.00 Build 0)  -->
<svg version="1.1" id="Layer_1" xmlns="http://www.w3.org/2000/svg" xmlns:xlink="http://www.w3.org/1999/xlink" x="0px" y="0px"
	 viewBox="0 0 125 125" style="enable-background:new 0 0 125 125;" xml:space="preserve">
<style type="text/css">
	.st0{fill-rule:evenodd;clip-rule:evenodd;fill:#F77872;}
	.st1{fill-rule:evenodd;clip-rule:evenodd;fill:#B85A5A;}
	.st2{fill-rule:evenodd;clip-rule:evenodd;fill:#ACB4B9;}
	.st3{fill-rule:evenodd;clip-rule:evenodd;fill:#878F94;}
	.st4{fill-rule:evenodd;clip-rule:evenodd;fill:#E3E6E7;}
	.st5{fill-rule:evenodd;clip-rule:evenodd;fill:#647178;}
	.st6{fill-rule:evenodd;clip-rule:evenodd;}
</style>
<g>
	<path class="st0" d="M62.317,9.167c29.354,0,53.149,23.796,53.149,53.149c0,29.354-23.796,53.15-53.149,53.15
		c-29.354,0-53.149-23.796-53.149-53.15C9.168,32.963,32.964,9.167,62.317,9.167L62.317,9.167z"/>
	<path class="st1" d="M115.411,59.934c0.035,0.79,0.056,1.584,0.056,2.383c0,26.801-19.838,48.965-45.631,52.618L39.768,84.866
		l50.288-50.288L115.411,59.934L115.411,59.934z"/>
	<path class="st2" d="M62.317,30.427c3.76,0,7.367,0.653,10.716,1.848c2.065-1.176,4.455-1.848,7.001-1.848
		c7.828,0,14.174,6.346,14.174,14.173c0,2.547-0.673,4.937-1.848,7.001c1.194,3.35,1.847,6.956,1.847,10.716
		c0,17.612-14.277,31.891-31.89,31.891s-31.89-14.278-31.89-31.891c0-3.76,0.652-7.366,1.848-10.716
		c-1.176-2.065-1.848-4.454-1.848-7.001c0-7.827,6.346-14.173,14.173-14.173c2.547,0,4.936,0.672,7.001,1.848
		C54.951,31.08,58.557,30.427,62.317,30.427L62.317,30.427z"/>
	<path class="st3" d="M87.874,81.394C82.17,89.022,73.131,94.01,62.919,94.199l-5.611-5.612l10.022-27.738L87.874,81.394
		L87.874,81.394z"/>
	<path class="st4" d="M58.774,80.033l-2.414,0.005c-2.589-0.022-4.672-2.135-4.672-4.729c0-2.592,2.132-4.701,4.725-4.725h11.811
		c2.609,0,4.725,2.115,4.725,4.725c0,2.609-2.115,4.725-4.725,4.725h-2.362c1.957,0,3.543,1.586,3.543,3.543
		c0,3.914-3.173,7.087-7.086,7.087c-3.914,0-7.087-3.173-7.087-7.087C55.231,81.62,56.818,80.033,58.774,80.033L58.774,80.033z"/>
	<path class="st5" d="M80.034,33.971c5.872,0,10.63,4.758,10.63,10.629c0,2.482-0.851,4.766-2.275,6.573
		c-2.865-6.694-8.233-12.062-14.928-14.927C75.269,34.821,77.552,33.971,80.034,33.971L80.034,33.971z M44.6,33.971
		c-5.871,0-10.63,4.758-10.63,10.629c0,2.482,0.85,4.766,2.275,6.573c2.865-6.694,8.233-12.062,14.928-14.927
		C49.366,34.821,47.083,33.971,44.6,33.971L44.6,33.971z"/>
	<path class="st6" d="M44.601,58.774c1.956,0,3.543,1.586,3.543,3.543s-1.587,3.544-3.543,3.544c-1.957,0-3.544-1.587-3.544-3.544
		S42.644,58.774,44.601,58.774L44.601,58.774z M69.404,65.86c0-3.914-3.173-7.087-7.086-7.087c-3.914,0-7.087,3.173-7.087,7.087
		v10.63c0,1.957,1.587,3.543,3.543,3.543h7.087c1.957,0,3.543-1.586,3.543-3.543V65.86L69.404,65.86z M80.034,58.834
		c1.957,0,3.544,1.587,3.544,3.544c0,1.957-1.587,3.543-3.544,3.543c-1.957,0-3.543-1.586-3.543-3.543
		C76.491,60.421,78.077,58.834,80.034,58.834L80.034,58.834z"/>
</g>
</svg>
