<?xml version="1.0" encoding="utf-8"?>
<!-- Generator: Adobe Illustrator 24.3.0, SVG Export Plug-In . SVG Version: 6.00 Build 0)  -->
<svg version="1.1" id="Layer_1" xmlns="http://www.w3.org/2000/svg" xmlns:xlink="http://www.w3.org/1999/xlink" x="0px" y="0px"
	 viewBox="0 0 125 125" style="enable-background:new 0 0 125 125;" xml:space="preserve">
<style type="text/css">
	.st0{fill-rule:evenodd;clip-rule:evenodd;fill:#5C9268;}
	.st1{fill-rule:evenodd;clip-rule:evenodd;fill:#4A7355;}
	.st2{fill-rule:evenodd;clip-rule:evenodd;fill:#CA957C;}
	.st3{fill-rule:evenodd;clip-rule:evenodd;fill:#7B5543;}
	.st4{fill-rule:evenodd;clip-rule:evenodd;fill:#FCCFBA;}
	.st5{fill-rule:evenodd;clip-rule:evenodd;fill:#010101;}
</style>
<g>
	<path class="st0" d="M62.762,9.612c29.354,0,53.15,23.796,53.15,53.149s-23.796,53.15-53.15,53.15S9.613,92.115,9.613,62.762
		S33.408,9.612,62.762,9.612L62.762,9.612z"/>
	<path class="st1" d="M115.711,58.157c0.131,1.519,0.201,3.054,0.201,4.604c0,26.801-19.839,48.965-45.631,52.618L40.213,85.311
		l51.326-51.326L115.711,58.157L115.711,58.157z"/>
	<path class="st2" d="M62.762,30.872c4.923,0,9.585,1.116,13.748,3.108c1.924-1.921,4.579-3.108,7.512-3.108
		c5.871,0,10.63,4.759,10.63,10.63c0,2.934-1.187,5.589-3.108,7.513c1.992,4.162,3.108,8.824,3.108,13.747
		c0,17.612-14.277,31.89-31.89,31.89c-17.612,0-31.89-14.277-31.89-31.89c0-4.923,1.117-9.585,3.109-13.748
		c-1.921-1.924-3.109-4.578-3.109-7.512c0-5.871,4.759-10.63,10.63-10.63c2.933,0,5.588,1.188,7.512,3.108
		C53.177,31.988,57.839,30.872,62.762,30.872L62.762,30.872z"/>
	<path class="st3" d="M41.503,34.415c1.579,0,3.038,0.518,4.216,1.391c-3.992,2.529-7.383,5.921-9.913,9.913
		c-0.873-1.179-1.39-2.637-1.39-4.217C34.416,37.588,37.589,34.415,41.503,34.415L41.503,34.415z M84.022,34.415
		c3.914,0,7.087,3.173,7.087,7.087c0,1.58-0.517,3.038-1.391,4.217c-2.529-3.992-5.921-7.383-9.912-9.912
		C80.984,34.932,82.443,34.415,84.022,34.415L84.022,34.415z"/>
	<path class="st3" d="M85.088,85.53c-5.753,5.641-13.632,9.121-22.326,9.121c-2.243,0-4.432-0.232-6.544-0.673l-3.478-3.479V77.036
		l23.744-0.109L85.088,85.53L85.088,85.53z"/>
	<path class="st4" d="M65.261,54.724c2.595-3.679,6.831-6.136,11.675-6.136c7.827,0,14.173,6.345,14.173,14.173
		s-6.346,14.173-14.173,14.173c-0.151,0-0.302-0.003-0.452-0.008c1.211,4.698-0.021,9.896-3.7,13.573
		c-5.534,5.535-14.509,5.535-20.043,0c-3.679-3.678-4.912-8.875-3.701-13.573c-0.149,0.005-0.3,0.008-0.451,0.008
		c-7.828,0-14.173-6.345-14.173-14.173s6.346-14.173,14.173-14.173c4.844,0,9.08,2.458,11.676,6.138
		C61.254,56.128,64.272,56.127,65.261,54.724L65.261,54.724z"/>
	<path class="st5" d="M48.589,59.219c1.957,0,3.544,1.586,3.544,3.543c0,1.957-1.587,3.544-3.544,3.544
		c-1.957,0-3.543-1.587-3.543-3.544C45.046,60.804,46.632,59.219,48.589,59.219L48.589,59.219z M76.936,59.279
		c1.956,0,3.543,1.587,3.543,3.543c0,1.957-1.587,3.544-3.543,3.544c-1.957,0-3.544-1.587-3.544-3.544
		C73.392,60.866,74.979,59.279,76.936,59.279L76.936,59.279z"/>
	<path class="st3" d="M59.219,69.848c0.979,0,1.772,0.793,1.772,1.771s-0.793,1.771-1.772,1.771s-1.771-0.793-1.771-1.771
		S58.241,69.848,59.219,69.848L59.219,69.848z M66.306,69.848c0.977,0,1.771,0.793,1.771,1.771s-0.794,1.771-1.771,1.771
		c-0.979,0-1.773-0.793-1.773-1.771S65.328,69.848,66.306,69.848L66.306,69.848z"/>
	<path class="st2" d="M57.448,82.25h10.63c0.974,0,1.771,0.798,1.771,1.771c0,0.975-0.798,1.771-1.771,1.771h-10.63
		c-0.974,0-1.771-0.797-1.771-1.771C55.676,83.048,56.473,82.25,57.448,82.25L57.448,82.25z"/>
</g>
</svg>
