<?xml version="1.0" encoding="utf-8"?>
<!-- Generator: Adobe Illustrator 24.3.0, SVG Export Plug-In . SVG Version: 6.00 Build 0)  -->
<svg version="1.1" id="Layer_1" xmlns="http://www.w3.org/2000/svg" xmlns:xlink="http://www.w3.org/1999/xlink" x="0px" y="0px"
	 viewBox="0 0 125 125" style="enable-background:new 0 0 125 125;" xml:space="preserve">
<style type="text/css">
	.st0{fill-rule:evenodd;clip-rule:evenodd;fill:#99ABAB;}
	.st1{fill-rule:evenodd;clip-rule:evenodd;fill:#6F8280;}
	.st2{fill-rule:evenodd;clip-rule:evenodd;}
	.st3{fill-rule:evenodd;clip-rule:evenodd;fill:#333333;}
	.st4{fill-rule:evenodd;clip-rule:evenodd;fill:#FFFFFF;}
	.st5{fill-rule:evenodd;clip-rule:evenodd;fill:#CCCCCC;}
	.st6{fill-rule:evenodd;clip-rule:evenodd;fill:#E6E6E6;}
</style>
<g>
	<path class="st0" d="M62.762,9.612c29.354,0,53.149,23.795,53.149,53.148c0,29.354-23.796,53.15-53.149,53.15
		S9.613,92.114,9.613,62.76C9.613,33.407,33.408,9.612,62.762,9.612L62.762,9.612z"/>
	<path class="st1" d="M115.711,58.157c0.13,1.518,0.2,3.053,0.2,4.604c0,26.801-19.838,48.965-45.631,52.617L40.212,85.311
		l51.326-51.326L115.711,58.157L115.711,58.157z"/>
	<path class="st2" d="M41.502,30.872c5.871,0,10.63,4.759,10.63,10.63c0,5.87-4.759,10.63-10.63,10.63s-10.63-4.76-10.63-10.63
		C30.872,35.63,35.631,30.872,41.502,30.872L41.502,30.872z M84.023,30.872c5.87,0,10.63,4.759,10.63,10.63
		c0,5.87-4.76,10.63-10.63,10.63c-5.871,0-10.631-4.76-10.631-10.63C73.392,35.63,78.152,30.872,84.023,30.872L84.023,30.872z"/>
	<path class="st3" d="M41.502,34.415c1.579,0,3.038,0.517,4.216,1.391c-3.992,2.529-7.383,5.921-9.912,9.912
		c-0.873-1.178-1.391-2.637-1.391-4.216C34.415,37.587,37.588,34.415,41.502,34.415L41.502,34.415z M84.023,34.415
		c3.913,0,7.086,3.173,7.086,7.087c0,1.579-0.517,3.038-1.391,4.216c-2.529-3.991-5.921-7.383-9.912-9.912
		C80.984,34.931,82.443,34.415,84.023,34.415L84.023,34.415z"/>
	<path class="st4" d="M62.762,30.872c17.612,0,31.89,14.277,31.89,31.89s-14.278,31.889-31.89,31.889s-31.89-14.277-31.89-31.89
		S45.15,30.872,62.762,30.872L62.762,30.872z"/>
	<path class="st5" d="M86.732,83.793c-4.965,5.653-11.896,9.535-19.726,10.576L52.202,79.567L71.51,68.571L86.732,83.793
		L86.732,83.793z"/>
	<path class="st6" d="M62.762,69.847c3.914,0,7.087,3.173,7.087,7.087s-3.173,7.087-7.087,7.087s-7.087-3.173-7.087-7.087
		C55.675,73.02,58.848,69.847,62.762,69.847L62.762,69.847z"/>
	<path class="st4" d="M62.762,62.822c6.83,0,12.371,5.541,12.371,12.371c0,3.416-2.769,6.186-6.185,6.186
		c-3.406,0-6.169-2.753-6.186-6.154c-0.017,3.401-2.78,6.154-6.186,6.154c-3.416,0-6.186-2.77-6.186-6.186
		C50.391,68.363,55.932,62.822,62.762,62.822L62.762,62.822z"/>
	<path class="st2" d="M69.849,69.847c0,3.914-3.173,7.087-7.086,7.087c-3.914,0-7.087-3.173-7.087-7.087H69.849L69.849,69.847z
		 M48.59,52.131c3.913,0,7.086,3.173,7.086,7.086c0,1.177-0.321,2.311-0.847,3.363l-3.395,6.796
		c-1.274,2.55-3.537,4.026-6.389,4.015c-4.027-0.018-7.03-3.053-7.086-7.087c-0.017-1.177,0.172-2.019,0.698-3.072l3.544-7.087
		C43.42,53.709,45.865,52.131,48.59,52.131L48.59,52.131z M76.935,52.131c-3.914,0-7.087,3.173-7.087,7.086
		c0,1.177,0.322,2.312,0.848,3.363l3.394,6.796c1.274,2.55,3.537,4.026,6.388,4.015c4.028-0.018,7.031-3.053,7.087-7.087
		c0.017-1.177-0.173-2.019-0.699-3.072l-3.543-7.087C82.104,53.709,79.66,52.131,76.935,52.131L76.935,52.131z"/>
	<path class="st3" d="M48.589,59.217c1.957,0,3.543,1.587,3.543,3.544c0,1.957-1.586,3.543-3.543,3.543s-3.544-1.586-3.544-3.543
		S46.632,59.217,48.589,59.217L48.589,59.217z M76.936,59.279c1.957,0,3.543,1.586,3.543,3.543c0,1.957-1.586,3.543-3.543,3.543
		s-3.544-1.586-3.544-3.543C73.392,60.865,74.979,59.279,76.936,59.279L76.936,59.279z"/>
</g>
</svg>
