<?xml version="1.0" encoding="utf-8"?>
<!-- Generator: Adobe Illustrator 24.3.0, SVG Export Plug-In . SVG Version: 6.00 Build 0)  -->
<svg version="1.1" id="Layer_1" xmlns="http://www.w3.org/2000/svg" xmlns:xlink="http://www.w3.org/1999/xlink" x="0px" y="0px"
	 viewBox="0 0 125 125" style="enable-background:new 0 0 125 125;" xml:space="preserve">
<style type="text/css">
	.st0{fill-rule:evenodd;clip-rule:evenodd;fill:#6FC9DF;}
	.st1{fill-rule:evenodd;clip-rule:evenodd;fill:#549DAF;}
	.st2{fill-rule:evenodd;clip-rule:evenodd;fill:#010101;}
	.st3{fill-rule:evenodd;clip-rule:evenodd;fill:#FFFFFF;}
	.st4{fill-rule:evenodd;clip-rule:evenodd;fill:#CCCCCC;}
	.st5{fill-rule:evenodd;clip-rule:evenodd;fill:#F26722;}
	.st6{fill-rule:evenodd;clip-rule:evenodd;fill:#BA4D26;}
</style>
<g>
	<path class="st0" d="M62.762,9.612c29.354,0,53.149,23.796,53.149,53.149s-23.795,53.15-53.149,53.15S9.613,92.115,9.613,62.762
		S33.408,9.612,62.762,9.612L62.762,9.612z"/>
	<path class="st1" d="M115.38,70.28c-3.306,23.336-21.764,41.794-45.099,45.1L40.213,85.311l45.099-45.098L115.38,70.28
		L115.38,70.28z"/>
	<path class="st2" d="M62.762,30.872c17.612,0,31.891,14.277,31.891,31.89c0,8.807-3.57,16.778-9.341,22.55H40.213
		c-5.771-5.772-9.341-13.744-9.341-22.551C30.872,45.149,45.151,30.872,62.762,30.872L62.762,30.872z"/>
	<path class="st3" d="M87.566,82.803C81.72,90.03,72.782,94.651,62.762,94.651c-10.019,0-18.956-4.621-24.803-11.847V62.761
		c0-5.87,4.76-10.63,10.63-10.63c5.871,0,10.63,4.76,10.63,10.63v7.087h7.087v-7.087c0-5.87,4.76-10.63,10.63-10.63
		c5.871,0,10.63,4.76,10.63,10.63L87.566,82.803L87.566,82.803z M48.589,59.219c1.957,0,3.543,1.586,3.543,3.543
		c0,1.957-1.586,3.544-3.543,3.544s-3.543-1.587-3.543-3.544C45.046,60.804,46.632,59.219,48.589,59.219L48.589,59.219z
		 M76.936,59.279c1.957,0,3.543,1.587,3.543,3.544c0,1.956-1.586,3.543-3.543,3.543s-3.543-1.587-3.543-3.543
		C73.393,60.866,74.979,59.279,76.936,59.279L76.936,59.279z"/>
	<path class="st4" d="M85.004,85.611c-3.493,3.4-7.762,6.007-12.516,7.528L57.751,78.402l8.555-8.554l0,0v-0.001l1.468-1.467
		L85.004,85.611L85.004,85.611z"/>
	<path class="st5" d="M62.762,66.305c3.914,0,7.087,3.173,7.087,7.086l-7.087,3.544l-7.086-3.544
		C55.676,69.478,58.849,66.305,62.762,66.305L62.762,66.305z"/>
	<path class="st6" d="M69.849,73.391c0,3.914-3.173,7.087-7.087,7.087c-3.913,0-7.086-3.173-7.086-7.087H69.849L69.849,73.391z"/>
</g>
</svg>
