<?xml version="1.0" encoding="utf-8"?>
<!-- Generator: Adobe Illustrator 24.3.0, SVG Export Plug-In . SVG Version: 6.00 Build 0)  -->
<svg version="1.1" id="Layer_1" xmlns="http://www.w3.org/2000/svg" xmlns:xlink="http://www.w3.org/1999/xlink" x="0px" y="0px"
	 viewBox="0 0 125 125" style="enable-background:new 0 0 125 125;" xml:space="preserve">
<style type="text/css">
	.st0{fill-rule:evenodd;clip-rule:evenodd;fill:#1C8094;}
	.st1{fill-rule:evenodd;clip-rule:evenodd;fill:#2B6877;}
	.st2{fill-rule:evenodd;clip-rule:evenodd;fill:#F6989A;}
	.st3{fill-rule:evenodd;clip-rule:evenodd;fill:#BA7071;}
	.st4{fill-rule:evenodd;clip-rule:evenodd;fill:#010101;}
	.st5{fill-rule:evenodd;clip-rule:evenodd;fill:#FAC6C7;}
</style>
<g>
	<path class="st0" d="M62.762,9.612c29.354,0,53.149,23.796,53.149,53.149c0,29.354-23.795,53.15-53.149,53.15
		c-29.354,0-53.149-23.796-53.149-53.15C9.612,33.408,33.408,9.612,62.762,9.612L62.762,9.612z"/>
	<path class="st1" d="M114.581,50.9c0.87,3.814,1.33,7.784,1.33,11.862c0,26.801-19.838,48.965-45.63,52.618L40.212,85.311
		l54.39-54.39L114.581,50.9L114.581,50.9z"/>
	<path class="st2" d="M62.762,30.872c5.435,0,10.551,1.361,15.029,3.758c5.218-2.791,11.05-4.028,16.812-3.709
		c0.313,5.655-1.061,11.566-3.757,16.722c2.428,4.499,3.806,9.648,3.806,15.118c0,17.612-14.278,31.89-31.89,31.89
		c-17.612,0-31.89-14.278-31.89-31.89c0-5.434,1.361-10.551,3.759-15.029c-2.792-5.219-4.028-11.05-3.709-16.811
		c5.762-0.319,11.593,0.917,16.812,3.709C52.211,32.233,57.327,30.872,62.762,30.872L62.762,30.872z"/>
	<path class="st3" d="M87.7,82.636c-5.474,6.858-13.715,11.408-23.034,11.957L54.014,83.941V70.477l17.496-4.031L87.7,82.636
		L87.7,82.636z M91.031,34.471c-3.37,0.211-6.646,1.019-9.692,2.369c2.8,2.01,5.26,4.463,7.28,7.256
		C89.955,41.036,90.79,37.744,91.031,34.471L91.031,34.471z M44.185,36.84c-3.053-1.354-6.338-2.162-9.716-2.371
		c0.209,3.378,1.017,6.662,2.371,9.716C38.872,41.355,41.355,38.872,44.185,36.84L44.185,36.84z"/>
	<path class="st4" d="M45.045,59.218c1.957,0,3.543,1.586,3.543,3.543c0,1.957-1.586,3.544-3.543,3.544
		c-1.957,0-3.543-1.586-3.543-3.544C41.502,60.805,43.089,59.218,45.045,59.218L45.045,59.218z M80.478,59.279
		c1.957,0,3.544,1.586,3.544,3.543c0,1.957-1.587,3.543-3.544,3.543c-1.956,0-3.543-1.586-3.543-3.543
		C76.935,60.865,78.522,59.279,80.478,59.279L80.478,59.279z"/>
	<path class="st5" d="M54.014,66.446c4.831-4.831,12.665-4.831,17.496,0c4.831,4.831,4.831,12.664,0,17.495
		c-4.831,4.831-12.664,4.831-17.496,0C49.183,79.11,49.183,71.277,54.014,66.446L54.014,66.446z M67.092,72.101
		c1.708,0,3.093,1.385,3.093,3.093s-1.385,3.093-3.093,3.093c-1.709,0-3.093-1.385-3.093-3.093S65.384,72.101,67.092,72.101
		L67.092,72.101z M58.432,72.101c1.708,0,3.093,1.385,3.093,3.093s-1.384,3.093-3.093,3.093c-1.708,0-3.093-1.385-3.093-3.093
		S56.724,72.101,58.432,72.101L58.432,72.101z"/>
</g>
</svg>
