<?xml version="1.0" encoding="utf-8"?>
<!-- Generator: Adobe Illustrator 24.3.0, SVG Export Plug-In . SVG Version: 6.00 Build 0)  -->
<svg version="1.1" id="Layer_1" xmlns="http://www.w3.org/2000/svg" xmlns:xlink="http://www.w3.org/1999/xlink" x="0px" y="0px"
	 viewBox="0 0 125 125" style="enable-background:new 0 0 125 125;" xml:space="preserve">
<style type="text/css">
	.st0{fill-rule:evenodd;clip-rule:evenodd;fill:#916C52;}
	.st1{fill-rule:evenodd;clip-rule:evenodd;fill:#724F3B;}
	.st2{fill-rule:evenodd;clip-rule:evenodd;fill:#F59412;}
	.st3{fill-rule:evenodd;clip-rule:evenodd;fill:#BC6D1E;}
	.st4{fill-rule:evenodd;clip-rule:evenodd;fill:#CCCCCC;}
	.st5{fill-rule:evenodd;clip-rule:evenodd;fill:#FFFFFF;}
	.st6{fill-rule:evenodd;clip-rule:evenodd;}
</style>
<g>
	<path class="st0" d="M62.5,9.351c29.354,0,53.15,23.796,53.15,53.149c0,29.354-23.796,53.15-53.15,53.15
		c-29.354,0-53.149-23.796-53.149-53.15C9.351,33.147,33.146,9.351,62.5,9.351L62.5,9.351z"/>
	<path class="st1" d="M115.449,57.897c0.13,1.518,0.201,3.053,0.201,4.604c0,26.802-19.838,48.965-45.631,52.618L39.951,85.05
		l51.326-51.326L115.449,57.897L115.449,57.897z"/>
	<path class="st2" d="M62.5,30.611c4.923,0,9.586,1.116,13.749,3.109c1.923-1.921,4.579-3.109,7.512-3.109
		c5.871,0,10.63,4.76,10.63,10.63c0,2.934-1.188,5.589-3.109,7.513c1.992,4.163,3.108,8.824,3.108,13.747
		c0,17.612-14.278,31.891-31.89,31.891c-17.612,0-31.89-14.278-31.89-31.891c0-4.923,1.116-9.585,3.108-13.747
		c-1.92-1.924-3.108-4.579-3.108-7.513c0-5.87,4.759-10.63,10.63-10.63c2.933,0,5.588,1.188,7.511,3.108
		C52.915,31.727,57.577,30.611,62.5,30.611L62.5,30.611z"/>
	<path class="st3" d="M86.468,83.534c-5.722,6.515-14.057,10.678-23.367,10.85L50.388,81.67l24.251-9.966L86.468,83.534
		L86.468,83.534z M69.588,66.044l0,3.543H55.414v-3.543c0-3.914,3.173-7.087,7.087-7.087C66.414,58.957,69.588,62.13,69.588,66.044
		L69.588,66.044z M41.24,34.155c1.58,0,3.038,0.517,4.216,1.39c-3.992,2.529-7.383,5.921-9.913,9.913
		c-0.873-1.179-1.39-2.637-1.39-4.216C34.154,37.328,37.327,34.155,41.24,34.155L41.24,34.155z M83.761,34.155
		c3.914,0,7.087,3.173,7.087,7.087c0,1.579-0.517,3.038-1.391,4.216c-2.529-3.992-5.921-7.383-9.912-9.912
		C80.723,34.671,82.181,34.155,83.761,34.155L83.761,34.155z"/>
	<path class="st4" d="M62.5,73.13c3.914,0,7.087,3.174,7.087,7.087c0,3.914-3.173,7.087-7.087,7.087
		c-3.914,0-7.086-3.173-7.086-7.087C55.414,76.304,58.586,73.13,62.5,73.13L62.5,73.13z"/>
	<path class="st5" d="M55.414,69.587h14.173c3.914,0,7.086,3.173,7.086,7.087c0,3.914-3.173,7.087-7.086,7.087
		c-3.914,0-7.087-3.173-7.087-7.087c0,3.914-3.173,7.087-7.086,7.087c-3.914,0-7.087-3.173-7.087-7.087
		C48.327,72.76,51.5,69.587,55.414,69.587L55.414,69.587z"/>
	<path class="st6" d="M69.587,69.587c0,3.914-3.173,7.087-7.086,7.087c-3.914,0-7.087-3.173-7.087-7.087H69.587L69.587,69.587z"/>
	<path class="st6" d="M44.784,58.957c1.957,0,3.543,1.587,3.543,3.543c0,1.958-1.586,3.544-3.543,3.544
		c-1.957,0-3.543-1.586-3.543-3.544C41.241,60.544,42.827,58.957,44.784,58.957L44.784,58.957z M94.34,60.729
		c0.032,0.587,0.05,1.177,0.05,1.771s-0.018,1.186-0.05,1.772h-5.265c-0.972,0-1.772-0.798-1.772-1.772
		c0-0.974,0.798-1.771,1.772-1.771H94.34L94.34,60.729z M57.186,35.926h10.63c0.974,0,1.771,0.797,1.771,1.771
		c0,0.975-0.798,1.771-1.771,1.771h-10.63c-0.974,0-1.771-0.797-1.771-1.771C55.414,36.723,56.211,35.926,57.186,35.926
		L57.186,35.926z M71.359,50.099h3.543c0.975,0,1.772,0.798,1.772,1.772c0,0.975-0.801,1.772-1.772,1.772h-3.543
		c-0.971,0-1.772-0.798-1.772-1.772C69.587,50.897,70.384,50.099,71.359,50.099L71.359,50.099z M50.099,50.099h3.543
		c0.975,0,1.772,0.798,1.772,1.772c0,0.975-0.801,1.772-1.772,1.772h-3.543c-0.971,0-1.772-0.798-1.772-1.772
		C48.327,50.897,49.125,50.099,50.099,50.099L50.099,50.099z M53.642,43.013h17.717c0.975,0,1.772,0.797,1.772,1.771
		c0,0.974-0.797,1.771-1.772,1.771H53.642c-0.975,0-1.771-0.798-1.771-1.771C51.871,43.81,52.667,43.013,53.642,43.013
		L53.642,43.013z M93.947,67.816c-0.203,1.205-0.472,2.388-0.805,3.543h-7.61c-0.971,0-1.771-0.797-1.771-1.772
		c0-0.975,0.797-1.771,1.771-1.771H93.947L93.947,67.816z M91.825,75.049c-0.524,1.223-1.123,2.405-1.789,3.544h-0.96
		c-0.971,0-1.772-0.798-1.772-1.771c0-0.975,0.798-1.772,1.772-1.772H91.825L91.825,75.049z M34.878,78.446
		c-0.659-1.139-1.25-2.321-1.766-3.543h2.813c0.975,0,1.772,0.797,1.772,1.771s-0.801,1.771-1.772,1.771H34.878L34.878,78.446z
		 M31.858,71.359c-0.333-1.155-0.603-2.338-0.805-3.543h8.415c0.975,0,1.771,0.797,1.771,1.771c0,0.975-0.8,1.772-1.771,1.772
		H31.858L31.858,71.359z M30.66,64.273c-0.032-0.587-0.05-1.178-0.05-1.772s0.018-1.185,0.05-1.771h5.265
		c0.975,0,1.772,0.798,1.772,1.771c0,0.975-0.8,1.772-1.772,1.772H30.66L30.66,64.273z M80.217,59.018
		c1.956,0,3.543,1.587,3.543,3.544c0,1.957-1.587,3.543-3.543,3.543c-1.957,0-3.544-1.586-3.544-3.543
		C76.674,60.605,78.26,59.018,80.217,59.018L80.217,59.018z"/>
</g>
</svg>
