<?xml version="1.0" encoding="utf-8"?>
<!-- Generator: Adobe Illustrator 24.3.0, SVG Export Plug-In . SVG Version: 6.00 Build 0)  -->
<svg version="1.1" id="Layer_1" xmlns="http://www.w3.org/2000/svg" xmlns:xlink="http://www.w3.org/1999/xlink" x="0px" y="0px"
	 viewBox="0 0 125 125" style="enable-background:new 0 0 125 125;" xml:space="preserve">
<style type="text/css">
	.st0{fill-rule:evenodd;clip-rule:evenodd;fill:#F59412;}
	.st1{fill-rule:evenodd;clip-rule:evenodd;fill:#BC6D1E;}
	.st2{fill-rule:evenodd;clip-rule:evenodd;fill:#808080;}
	.st3{fill-rule:evenodd;clip-rule:evenodd;fill:#FFFFFF;}
	.st4{fill-rule:evenodd;clip-rule:evenodd;fill:#CCCCCC;}
	.st5{fill-rule:evenodd;clip-rule:evenodd;fill:#B3B3B3;}
	.st6{fill-rule:evenodd;clip-rule:evenodd;}
</style>
<g>
	<path class="st0" d="M62.317,9.167c29.354,0,53.15,23.796,53.15,53.149c0,29.354-23.796,53.149-53.15,53.149
		c-29.354,0-53.149-23.795-53.149-53.149C9.168,32.963,32.963,9.167,62.317,9.167L62.317,9.167z"/>
	<path class="st1" d="M114.136,50.455c0.87,3.814,1.331,7.784,1.331,11.862c0,26.801-19.839,48.965-45.631,52.618L39.768,84.866
		l54.391-54.39L114.136,50.455L114.136,50.455z"/>
	<path class="st2" d="M30.477,30.476c8.741-0.483,17.644,2.612,24.322,9.29c3.478,3.478,5.984,7.56,7.519,11.908
		c1.536-4.348,4.04-8.43,7.519-11.908c6.678-6.678,15.58-9.773,24.322-9.29c0.483,8.742-3.062,18.095-9.29,24.322
		c-6.227,6.227-13.219,8.871-20.78,9.288c-1.192,0.06-2.349,0.063-3.542,0c-7.562-0.417-15.004-3.512-20.781-9.288
		C33.088,48.12,29.993,39.218,30.477,30.476L30.477,30.476z"/>
	<path class="st2" d="M62.317,30.427c17.613,0,31.89,14.277,31.89,31.889c0,3.728-0.642,7.306-1.817,10.631H32.245
		c-1.175-3.325-1.817-6.903-1.817-10.631C30.427,44.705,44.705,30.427,62.317,30.427L62.317,30.427z"/>
	<path class="st3" d="M93.416,69.403c-3.223,14.201-15.923,24.804-31.099,24.804c-15.176,0-27.875-10.603-31.099-24.804
		C56.462,69.403,68.172,69.403,93.416,69.403L93.416,69.403z"/>
	<path class="st4" d="M88.13,81.043C82.443,88.868,73.286,94.008,62.919,94.2L50.205,81.486l5.08-2.336
		c-0.036,0.289-0.055,0.584-0.055,0.883c0,3.914,3.173,7.087,7.086,7.087c3.913,0,7.086-3.173,7.086-7.087
		c0-2.469-1.263-4.643-3.178-5.911l10.265-4.719L88.13,81.043L88.13,81.043z"/>
	<path class="st2" d="M76.49,69.403v7.087c0,3.914-3.172,7.086-7.086,7.086c-3.914,0-7.087-3.173-7.087-7.086
		c0,3.914-3.173,7.086-7.086,7.086c-3.914,0-7.087-3.172-7.087-7.086v-7.087l14.173-7.087L76.49,69.403L76.49,69.403z"/>
	<path class="st5" d="M55.232,69.403c0-6.971,2.535-13.597,7.086-18.748c4.551,5.152,7.087,11.778,7.087,18.748H55.232
		L55.232,69.403z"/>
	<path class="st6" d="M69.404,69.403c0,3.914-3.173,7.087-7.087,7.087c-3.914,0-7.087-3.173-7.087-7.087H69.404L69.404,69.403z
		 M90.586,34.026c-3.369,0.211-6.646,1.019-9.692,2.369c2.801,2.01,5.261,4.463,7.28,7.256
		C89.51,40.591,90.346,37.299,90.586,34.026L90.586,34.026z M43.741,36.395c-3.053-1.354-6.338-2.162-9.716-2.371
		c0.209,3.378,1.017,6.663,2.371,9.716C38.427,40.911,40.911,38.427,43.741,36.395L43.741,36.395z M44.601,58.774
		c1.957,0,3.543,1.587,3.543,3.543c0,1.957-1.586,3.544-3.543,3.544c-1.957,0-3.543-1.587-3.543-3.544
		C41.058,60.361,42.644,58.774,44.601,58.774L44.601,58.774z M80.034,58.834c1.957,0,3.543,1.587,3.543,3.544
		c0,1.957-1.586,3.543-3.543,3.543c-1.957,0-3.543-1.586-3.543-3.543C76.491,60.421,78.077,58.834,80.034,58.834L80.034,58.834z"/>
</g>
</svg>
