<?xml version="1.0" encoding="utf-8"?>
<!-- Generator: Adobe Illustrator 24.2.3, SVG Export Plug-In . SVG Version: 6.00 Build 0)  -->
<svg version="1.1" id="Layer_1" xmlns="http://www.w3.org/2000/svg" xmlns:xlink="http://www.w3.org/1999/xlink" x="0px" y="0px"
	 viewBox="0 0 222 60" style="enable-background:new 0 0 222 60;" xml:space="preserve">
<g>
	<path d="M10.723,28.464H5.902c-1.984,0-3.607,2.345-3.607,4.329v1.063c0,1.488,0.923,2.352,2.216,2.698l0.232,1.505
		c0,0.155,0.052,0.294,0.124,0.422H3.883H3.524c-0.082,0-0.15,0.067-0.15,0.15s0.068,0.15,0.15,0.15h0.209v0.15
		c0,0.082,0.067,0.15,0.15,0.15h8.939c0.082,0,0.15-0.067,0.15-0.15v-0.15h0.209c0.082,0,0.15-0.067,0.15-0.15
		s-0.067-0.15-0.15-0.15h-0.359h-1.057c0.068-0.121,0.116-0.252,0.116-0.394l0.235-1.533c1.293-0.346,2.215-1.211,2.215-2.698
		v-1.063C14.331,30.809,12.707,28.464,10.723,28.464z M11.522,38.059c0,0.174-0.095,0.323-0.232,0.422H5.339
		c-0.14-0.102-0.236-0.257-0.238-0.449l-0.757-4.917c0-0.298,0.26-0.541,0.579-0.541h6.779c0.319,0,0.578,0.243,0.581,0.514
		L11.522,38.059z"/>
	<path d="M8.313,27.414c1.408,0,2.549-1.141,2.549-2.549c0-1.408-1.141-2.549-2.549-2.549s-2.549,1.141-2.549,2.549
		C5.763,26.273,6.905,27.414,8.313,27.414z"/>
	<path d="M27.231,36.553c1.293-0.346,2.215-1.211,2.215-2.698v-1.063c0-1.984-1.623-4.329-3.607-4.329h-4.821
		c-1.984,0-3.607,2.345-3.607,4.329v1.063c0,1.488,0.923,2.352,2.216,2.698l0.232,1.505c0,0.155,0.052,0.294,0.124,0.422h-0.983
		h-0.359c-0.082,0-0.15,0.067-0.15,0.15s0.068,0.15,0.15,0.15h0.209v0.15c0,0.082,0.067,0.15,0.15,0.15h8.939
		c0.082,0,0.15-0.067,0.15-0.15v-0.15h0.209c0.082,0,0.15-0.067,0.15-0.15s-0.067-0.15-0.15-0.15h-0.359H26.88
		c0.068-0.121,0.116-0.252,0.116-0.394L27.231,36.553z M26.637,38.059c0,0.174-0.095,0.323-0.232,0.422h-5.951
		c-0.14-0.102-0.236-0.257-0.238-0.449l-0.757-4.917c0-0.298,0.26-0.541,0.579-0.541h6.779c0.319,0,0.578,0.243,0.581,0.514
		L26.637,38.059z"/>
	<path d="M23.428,27.414c1.408,0,2.549-1.141,2.549-2.549c0-1.408-1.141-2.549-2.549-2.549c-1.408,0-2.549,1.141-2.549,2.549
		C20.879,26.273,22.02,27.414,23.428,27.414z"/>
	<path d="M42.483,38.93v-0.15h0.209c0.082,0,0.15-0.067,0.15-0.15s-0.067-0.15-0.15-0.15h-0.359h-1.057
		c0.068-0.121,0.116-0.252,0.116-0.394l0.235-1.533c1.293-0.346,2.215-1.211,2.215-2.698v-1.063c0-1.984-1.623-4.329-3.607-4.329
		h-4.821c-1.984,0-3.607,2.345-3.607,4.329v1.063c0,1.488,0.923,2.352,2.216,2.698l0.232,1.505c0,0.155,0.052,0.294,0.124,0.422
		h-0.983h-0.359c-0.082,0-0.15,0.067-0.15,0.15s0.068,0.15,0.15,0.15h0.209v0.15c0,0.082,0.067,0.15,0.15,0.15h8.939
		C42.415,39.08,42.483,39.013,42.483,38.93z M40.801,38.481H34.85c-0.14-0.102-0.236-0.257-0.238-0.449l-0.757-4.917
		c0-0.298,0.26-0.541,0.579-0.541h6.779c0.319,0,0.578,0.243,0.581,0.514l-0.761,4.972C41.033,38.233,40.938,38.382,40.801,38.481z"
		/>
	<path d="M37.823,27.414c1.408,0,2.549-1.141,2.549-2.549c0-1.408-1.141-2.549-2.549-2.549c-1.408,0-2.549,1.141-2.549,2.549
		C35.274,26.273,36.416,27.414,37.823,27.414z"/>
	<path d="M126.846,28.865c0-0.397-0.325-0.721-0.721-0.721h-3.587c-0.191-0.561-0.723-2.017-1.48-3.279
		c-0.96-1.6-2.599-1.799-3.399-2.077c-0.8-0.278-0.92-1.282-1.28-3.401c-0.36-2.119,0.12-2.919,0.28-5.038s0.2-4.439-1.6-7.638
		c-1.799-3.199-3.839-2.679-8.357-2.679c-4.519,0-5.118,8.117-5.158,8.237c0,0-0.32,0.88,0,1.919c0.32,1.04,0.32,5.278,0.28,6.358
		c-0.04,1.08-0.96,2.239-1.639,2.241c-0.68,0.002-1.2,0.438-2.439,1.598c-1.023,0.957-1.881,3.054-2.15,3.759h-3.776
		c-0.397,0-0.721,0.325-0.721,0.721l2.886,17.831c0,0.397,0.325,0.721,0.721,0.721h28.534c0.397,0,0.721-0.325,0.721-0.721
		l2.464-15.223h1.856v-0.721h-1.739L126.846,28.865z M102.883,13.798c0.39-0.39,0.45-0.54,0.6-0.66
		c0.15-0.12-0.057-1.53,0.586-1.769c0,0,0.823-2.309,2.953-1.5c2.129,0.81,2.909,1.649,4.199,2.309c1.29,0.66,2.382,1.44,3.051,1.41
		c0.668-0.03,0.998-0.69,1.148-0.15c0.15,0.54,0.33,1.619,0,2.039c-0.33,0.42-0.87,0.66-0.87,0.66l-0.278,0.45
		c0,0-1.791,4.619-4.97,4.619s-4.769-3.299-5.038-4.019c-0.27-0.72-0.42-0.99-0.42-0.99s-0.93-0.262-0.96-0.746
		S102.493,14.188,102.883,13.798z M114.271,22.406c0,1.305-2.284,2.623-5.101,2.623s-5.101-1.318-5.101-2.623
		c0,0,0.673-0.54,0.953-0.8c0.28-0.26,0.384-1.06,0.384-1.06c0,0.754,1.685,1.516,3.764,1.516c2.079,0,3.764-0.762,3.764-1.516
		c0,0,0.126,0.74,0.486,1.12C113.78,22.046,114.271,22.406,114.271,22.406z M123.248,46.581l-0.009,0.057v0.058H94.704v-0.058
		l-0.009-0.057l-2.867-17.716h34.287L123.248,46.581z"/>
	<path d="M108.971,36.621c-0.64,0-1.16,0.519-1.16,1.16c0,0.64,0.519,1.16,1.16,1.16c0.64,0,1.16-0.519,1.16-1.16
		C110.131,37.14,109.612,36.621,108.971,36.621z"/>
	<path d="M124.087,48.018H93.856c-0.379,0-0.69,0.31-0.69,0.69c0,0.379,0.31,0.69,0.69,0.69h30.231c0.379,0,0.69-0.31,0.69-0.69
		C124.776,48.328,124.466,48.018,124.087,48.018z"/>
	<path d="M189.876,29.104c-0.883,0-1.599,0.716-1.599,1.599s0.716,1.6,1.599,1.6c0.883,0,1.6-0.716,1.6-1.6
		S190.76,29.104,189.876,29.104z"/>
	<path d="M189.876,24.105c-3.644,0-6.598,2.954-6.598,6.598s2.954,6.598,6.598,6.598c3.644,0,6.598-2.954,6.598-6.598
		S193.52,24.105,189.876,24.105z M189.876,35.858c-2.842,0-5.155-2.313-5.155-5.155s2.312-5.155,5.155-5.155
		c2.842,0,5.155,2.313,5.155,5.155S192.719,35.858,189.876,35.858z"/>
	<path d="M197.027,21.266h-14.392c-0.397,0-0.721,0.325-0.721,0.721v17.111c0,0.397,0.325,0.721,0.721,0.721h0.985
		c-0.003,0.028-0.017,0.053-0.017,0.082v0.336c0,0.397,0.325,0.721,0.721,0.721h0.336c0.397,0,0.721-0.325,0.721-0.721v-0.336
		c0-0.029-0.013-0.054-0.017-0.082h8.93c-0.003,0.028-0.017,0.053-0.017,0.082v0.336c0,0.397,0.325,0.721,0.721,0.721h0.336
		c0.397,0,0.721-0.325,0.721-0.721v-0.336c0-0.029-0.013-0.054-0.017-0.082h0.985c0.397,0,0.721-0.325,0.721-0.721V21.987
		C197.749,21.591,197.424,21.266,197.027,21.266z M189.911,38.102c-4.08,0-7.399-3.319-7.399-7.399s3.319-7.399,7.399-7.399
		c4.08,0,7.399,3.319,7.399,7.399S193.991,38.102,189.911,38.102z"/>
	<path d="M211.303,29.104c-0.883,0-1.599,0.716-1.599,1.599s0.716,1.6,1.599,1.6c0.883,0,1.6-0.716,1.6-1.6
		S212.187,29.104,211.303,29.104z"/>
	<path d="M211.303,24.105c-3.644,0-6.598,2.954-6.598,6.598s2.954,6.598,6.598,6.598c3.644,0,6.598-2.954,6.598-6.598
		S214.947,24.105,211.303,24.105z M211.303,35.858c-2.842,0-5.155-2.313-5.155-5.155s2.312-5.155,5.155-5.155
		c2.842,0,5.155,2.313,5.155,5.155S214.146,35.858,211.303,35.858z"/>
	<path d="M218.454,21.266h-14.392c-0.397,0-0.721,0.325-0.721,0.721v17.111c0,0.397,0.325,0.721,0.721,0.721h0.985
		c-0.003,0.028-0.017,0.053-0.017,0.082v0.336c0,0.397,0.325,0.721,0.721,0.721h0.336c0.397,0,0.721-0.325,0.721-0.721v-0.336
		c0-0.029-0.013-0.054-0.017-0.082h8.93c-0.003,0.028-0.017,0.053-0.017,0.082v0.336c0,0.397,0.325,0.721,0.721,0.721h0.336
		c0.397,0,0.721-0.325,0.721-0.721v-0.336c0-0.029-0.013-0.054-0.017-0.082h0.985c0.397,0,0.721-0.325,0.721-0.721V21.987
		C219.176,21.591,218.851,21.266,218.454,21.266z M211.338,38.102c-4.08,0-7.399-3.319-7.399-7.399s3.319-7.399,7.399-7.399
		s7.399,3.319,7.399,7.399S215.418,38.102,211.338,38.102z"/>
	<rect x="165.075" y="30.752" width="2.164" height="0.721"/>
	<rect x="160.746" y="30.752" width="2.164" height="0.721"/>
	<rect x="156.418" y="30.752" width="2.164" height="0.721"/>
	<rect x="169.404" y="30.752" width="2.164" height="0.721"/>
	<rect x="134.773" y="30.752" width="2.164" height="0.721"/>
	<rect x="130.444" y="30.752" width="2.164" height="0.721"/>
	<rect x="139.102" y="30.752" width="2.164" height="0.721"/>
	<rect x="147.76" y="30.752" width="2.164" height="0.721"/>
	<rect x="178.062" y="30.752" width="2.164" height="0.721"/>
	<rect x="143.431" y="30.752" width="2.164" height="0.721"/>
	<rect x="152.089" y="30.752" width="2.164" height="0.721"/>
	<rect x="173.733" y="30.752" width="2.164" height="0.721"/>
	<rect x="25.074" y="56.59" width="2.164" height="0.721"/>
	<rect x="29.403" y="56.59" width="2.164" height="0.721"/>
	<rect x="33.732" y="56.59" width="2.164" height="0.721"/>
	<rect x="7.952" y="52.067" width="0.721" height="2.164"/>
	<rect x="7.952" y="39.081" width="0.721" height="2.164"/>
	<rect x="7.952" y="43.41" width="0.721" height="2.164"/>
	<rect x="20.745" y="56.59" width="2.164" height="0.721"/>
	<polygon points="8.673,56.396 7.952,56.396 7.952,57.311 9.923,57.311 9.923,56.59 8.673,56.59 	"/>
	<rect x="7.952" y="47.738" width="0.721" height="2.164"/>
	<rect x="16.416" y="56.59" width="2.164" height="0.721"/>
	<rect x="12.087" y="56.59" width="2.164" height="0.721"/>
	<rect x="42.39" y="56.59" width="2.164" height="0.721"/>
	<rect x="85.68" y="56.59" width="2.164" height="0.721"/>
	<rect x="81.351" y="56.59" width="2.164" height="0.721"/>
	<rect x="90.009" y="56.59" width="2.164" height="0.721"/>
	<rect x="64.035" y="56.59" width="2.164" height="0.721"/>
	<rect x="68.364" y="56.59" width="2.164" height="0.721"/>
	<rect x="94.337" y="56.59" width="2.164" height="0.721"/>
	<rect x="77.022" y="56.59" width="2.164" height="0.721"/>
	<rect x="108.81" y="49.397" width="0.721" height="0.741"/>
	<rect x="98.666" y="56.59" width="2.164" height="0.721"/>
	<rect x="108.81" y="52.303" width="0.721" height="2.164"/>
	<rect x="102.995" y="56.59" width="2.164" height="0.721"/>
	<polygon points="109.17,56.59 107.324,56.59 107.324,57.311 109.531,57.311 109.531,56.632 109.17,56.632 	"/>
	<rect x="72.693" y="56.59" width="2.164" height="0.721"/>
	<rect x="51.048" y="56.59" width="2.164" height="0.721"/>
	<rect x="55.377" y="56.59" width="2.164" height="0.721"/>
	<rect x="46.719" y="56.59" width="2.164" height="0.721"/>
	<rect x="59.706" y="56.59" width="2.164" height="0.721"/>
	<rect x="23.067" y="39.081" width="0.721" height="2.164"/>
	<rect x="23.067" y="43.41" width="0.721" height="2.164"/>
	<rect x="23.067" y="47.738" width="0.721" height="2.164"/>
	<rect x="23.067" y="52.067" width="0.721" height="2.164"/>
	<rect x="23.067" y="56.396" width="0.721" height="0.554"/>
	<rect x="37.464" y="39.081" width="0.721" height="2.164"/>
	<rect x="37.464" y="43.41" width="0.721" height="2.164"/>
	<rect x="37.464" y="52.067" width="0.721" height="2.164"/>
	<polygon points="38.185,56.396 37.464,56.396 37.464,56.951 38.061,56.951 38.061,57.311 40.226,57.311 40.226,56.59 38.185,56.59 
			"/>
	<rect x="37.464" y="47.738" width="0.721" height="2.164"/>
</g>
</svg>
